<?xml version="1.0" encoding="UTF-8"?>
<svg xmlns="http://www.w3.org/2000/svg" viewBox="0 0 1280 480" width="1280" height="480" preserveAspectRatio="xMidYMid meet">



<defs>
  <filter id="glow" x="-20%" y="-20%" width="140%" height="140%">
    <feGaussianBlur stdDeviation="3" result="blur"></feGaussianBlur>
    <feMerge><feMergeNode in="blur"></feMergeNode><feMergeNode in="SourceGraphic"></feMergeNode></feMerge>
  </filter>
  <radialGradient id="vignette" cx="50%" cy="50%" r="70%">
    <stop offset="60%" stop-color="#000000" stop-opacity="0"></stop>
    <stop offset="100%" stop-color="#000000" stop-opacity="0.6"></stop>
  </radialGradient>
  <linearGradient id="vlineg" x1="0" y1="0" x2="0" y2="1">
    <stop offset="0%" stop-color="#FCE700" stop-opacity="0"></stop>
    <stop offset="50%" stop-color="#FCE700" stop-opacity="0.5"></stop>
    <stop offset="100%" stop-color="#FCE700" stop-opacity="0"></stop>
  </linearGradient>
</defs>
<rect width="1280" height="480" fill="#000000"></rect>
<line x1="0" y1="0" x2="0" y2="480" stroke="#787878" stroke-opacity="0.12" stroke-width="1"></line><line x1="40" y1="0" x2="40" y2="480" stroke="#787878" stroke-opacity="0.12" stroke-width="1"></line><line x1="80" y1="0" x2="80" y2="480" stroke="#787878" stroke-opacity="0.12" stroke-width="1"></line><line x1="120" y1="0" x2="120" y2="480" stroke="#787878" stroke-opacity="0.12" stroke-width="1"></line><line x1="160" y1="0" x2="160" y2="480" stroke="#787878" stroke-opacity="0.12" stroke-width="1"></line><line x1="200" y1="0" x2="200" y2="480" stroke="#787878" stroke-opacity="0.12" stroke-width="1"></line><line x1="240" y1="0" x2="240" y2="480" stroke="#787878" stroke-opacity="0.12" stroke-width="1"></line><line x1="280" y1="0" x2="280" y2="480" stroke="#787878" stroke-opacity="0.12" stroke-width="1"></line><line x1="320" y1="0" x2="320" y2="480" stroke="#787878" stroke-opacity="0.12" stroke-width="1"></line><line x1="360" y1="0" x2="360" y2="480" stroke="#787878" stroke-opacity="0.12" stroke-width="1"></line><line x1="400" y1="0" x2="400" y2="480" stroke="#787878" stroke-opacity="0.12" stroke-width="1"></line><line x1="440" y1="0" x2="440" y2="480" stroke="#787878" stroke-opacity="0.12" stroke-width="1"></line><line x1="480" y1="0" x2="480" y2="480" stroke="#787878" stroke-opacity="0.12" stroke-width="1"></line><line x1="520" y1="0" x2="520" y2="480" stroke="#787878" stroke-opacity="0.12" stroke-width="1"></line><line x1="560" y1="0" x2="560" y2="480" stroke="#787878" stroke-opacity="0.12" stroke-width="1"></line><line x1="600" y1="0" x2="600" y2="480" stroke="#787878" stroke-opacity="0.12" stroke-width="1"></line><line x1="640" y1="0" x2="640" y2="480" stroke="#787878" stroke-opacity="0.12" stroke-width="1"></line><line x1="680" y1="0" x2="680" y2="480" stroke="#787878" stroke-opacity="0.12" stroke-width="1"></line><line x1="720" y1="0" x2="720" y2="480" stroke="#787878" stroke-opacity="0.12" stroke-width="1"></line><line x1="760" y1="0" x2="760" y2="480" stroke="#787878" stroke-opacity="0.12" stroke-width="1"></line><line x1="800" y1="0" x2="800" y2="480" stroke="#787878" stroke-opacity="0.12" stroke-width="1"></line><line x1="840" y1="0" x2="840" y2="480" stroke="#787878" stroke-opacity="0.12" stroke-width="1"></line><line x1="880" y1="0" x2="880" y2="480" stroke="#787878" stroke-opacity="0.12" stroke-width="1"></line><line x1="920" y1="0" x2="920" y2="480" stroke="#787878" stroke-opacity="0.12" stroke-width="1"></line><line x1="960" y1="0" x2="960" y2="480" stroke="#787878" stroke-opacity="0.12" stroke-width="1"></line><line x1="1000" y1="0" x2="1000" y2="480" stroke="#787878" stroke-opacity="0.12" stroke-width="1"></line><line x1="1040" y1="0" x2="1040" y2="480" stroke="#787878" stroke-opacity="0.12" stroke-width="1"></line><line x1="1080" y1="0" x2="1080" y2="480" stroke="#787878" stroke-opacity="0.12" stroke-width="1"></line><line x1="1120" y1="0" x2="1120" y2="480" stroke="#787878" stroke-opacity="0.12" stroke-width="1"></line><line x1="1160" y1="0" x2="1160" y2="480" stroke="#787878" stroke-opacity="0.12" stroke-width="1"></line><line x1="1200" y1="0" x2="1200" y2="480" stroke="#787878" stroke-opacity="0.12" stroke-width="1"></line><line x1="1240" y1="0" x2="1240" y2="480" stroke="#787878" stroke-opacity="0.12" stroke-width="1"></line><line x1="0" y1="0" x2="1280" y2="0" stroke="#787878" stroke-opacity="0.12" stroke-width="1"></line><line x1="0" y1="40" x2="1280" y2="40" stroke="#787878" stroke-opacity="0.12" stroke-width="1"></line><line x1="0" y1="80" x2="1280" y2="80" stroke="#787878" stroke-opacity="0.12" stroke-width="1"></line><line x1="0" y1="120" x2="1280" y2="120" stroke="#787878" stroke-opacity="0.12" stroke-width="1"></line><line x1="0" y1="160" x2="1280" y2="160" stroke="#787878" stroke-opacity="0.12" stroke-width="1"></line><line x1="0" y1="200" x2="1280" y2="200" stroke="#787878" stroke-opacity="0.12" stroke-width="1"></line><line x1="0" y1="240" x2="1280" y2="240" stroke="#787878" stroke-opacity="0.12" stroke-width="1"></line><line x1="0" y1="280" x2="1280" y2="280" stroke="#787878" stroke-opacity="0.12" stroke-width="1"></line><line x1="0" y1="320" x2="1280" y2="320" stroke="#787878" stroke-opacity="0.12" stroke-width="1"></line><line x1="0" y1="360" x2="1280" y2="360" stroke="#787878" stroke-opacity="0.12" stroke-width="1"></line><line x1="0" y1="400" x2="1280" y2="400" stroke="#787878" stroke-opacity="0.12" stroke-width="1"></line><line x1="0" y1="440" x2="1280" y2="440" stroke="#787878" stroke-opacity="0.12" stroke-width="1"></line>
<line x1="704" y1="100" x2="704" y2="380" stroke="url(#vlineg)" stroke-width="1"></line>
<polyline points="20,50 20,20 50,20" stroke="#FCE700" stroke-width="2" fill="none"></polyline><polyline points="1260,50 1260,20 1230,20" stroke="#FCE700" stroke-width="2" fill="none"></polyline><polyline points="20,430 20,460 50,460" stroke="#FCE700" stroke-width="2" fill="none"></polyline><polyline points="1260,430 1260,460 1230,460" stroke="#FCE700" stroke-width="2" fill="none"></polyline>

    <g transform="translate(60, 60)">
      <rect x="0" y="-8" width="10" height="10" fill="#00FF9C"></rect>
      <text class="tech" x="18" y="0" font-size="14" fill="#00FF9C" letter-spacing="2">SYS//ONLINE</text>
      <text class="tech" x="180" y="0" font-size="14" fill="#8A8A8A" letter-spacing="2">FW v0.3.1-alpha</text>
      <text class="tech" x="350" y="0" font-size="14" fill="#8A8A8A" letter-spacing="2">UPTIME 00:42:17</text>
    </g>
    <g transform="translate(1220, 60)">
      <text class="tech" x="0" y="0" font-size="14" fill="#8A8A8A" letter-spacing="2" text-anchor="end">
        <tspan fill="#FCE700">SPECTRE</tspan> · NODE //42 · SECTOR ZULU
      </text>
    </g>
  

    <g transform="translate(60, 240)">
      <text class="title" x="0" y="0" font-size="124" fill="#FCE700" letter-spacing="6" filter="url(#glow)">
        <tspan opacity="0.5">[</tspan>SPECTRE<tspan opacity="0.5">]</tspan>
      </text>
      <text class="title" x="2" y="0" font-size="124" fill="#FF003C" opacity="0.7" letter-spacing="6">
        <tspan opacity="0.5">[</tspan>SPECTRE<tspan opacity="0.5">]</tspan>
      </text>
      <text class="title" x="-2" y="0" font-size="124" fill="#00F0FF" opacity="0.6" letter-spacing="6">
        <tspan opacity="0.5">[</tspan>SPECTRE<tspan opacity="0.5">]</tspan>
      </text>
      <text class="title" x="0" y="0" font-size="124" fill="#FCE700" letter-spacing="6">
        <tspan opacity="0.5">[</tspan>SPECTRE<tspan opacity="0.5">]</tspan>
      </text>
    </g>
  

    <text class="tech" x="64" y="290" font-size="20" fill="#00F0FF" letter-spacing="6">// CYBERPUNK FIELDWARE</text>
    <text class="body" x="64" y="324" font-size="14" fill="#FFFFFF" letter-spacing="0.5">
      POCKET FIELD LAB <tspan fill="#FCE700">·</tspan> LIVING RF MAP <tspan fill="#FCE700">·</tspan> CYBERPUNK FIELDWARE <tspan fill="#FCE700">·</tspan> $20 HARDWARE
    </text>
  
<text class="body" x="920" y="96" fill="#8A8A8A" font-size="13">&gt; spectre.boot</text><text class="body" x="1224" y="96" fill="#00FF9C" font-size="13" text-anchor="end">[OK]</text><text class="body" x="920" y="116" fill="#8A8A8A" font-size="13">&gt; load theme.h</text><text class="body" x="1224" y="116" fill="#00FF9C" font-size="13" text-anchor="end">[OK]</text><text class="body" x="920" y="136" fill="#8A8A8A" font-size="13">&gt; init mascot</text><text class="body" x="1224" y="136" fill="#00FF9C" font-size="13" text-anchor="end">[OK]</text><text class="body" x="920" y="156" fill="#8A8A8A" font-size="13">&gt; scan 2.4GHz</text><text class="body" x="1224" y="156" fill="#00F0FF" font-size="13" text-anchor="end">37 SSIDs</text><text class="body" x="920" y="176" fill="#8A8A8A" font-size="13">&gt; scan 868MHz</text><text class="body" x="1224" y="176" fill="#00F0FF" font-size="13" text-anchor="end">12 LoRa</text><text class="body" x="920" y="196" fill="#8A8A8A" font-size="13">&gt; bt.scan</text><text class="body" x="1224" y="196" fill="#00F0FF" font-size="13" text-anchor="end">8 dev</text><text class="body" x="920" y="216" fill="#8A8A8A" font-size="13">&gt; ir.recv</text><text class="body" x="1224" y="216" fill="#FFFFFF" font-size="13" text-anchor="end">idle</text><text class="body" x="920" y="236" fill="#8A8A8A" font-size="13">&gt; battery</text><text class="body" x="1224" y="236" fill="#FFFFFF" font-size="13" text-anchor="end">87% / 4h12m</text><line x1="920" y1="254" x2="1224" y2="254" stroke="#787878" stroke-opacity="0.5"></line><text class="body" x="920" y="268" fill="#8A8A8A" font-size="13">&gt; pwny.mode</text><text class="body" x="1224" y="268" fill="#FF003C" font-size="13" text-anchor="end">VIKING</text><text class="body" x="920" y="288" fill="#8A8A8A" font-size="13">&gt; ready_</text><text class="body" x="1224" y="288" fill="#00FF9C" font-size="13" text-anchor="end">▮</text>

    <g transform="translate(1100, 280)" font-family="Space Mono, monospace" font-size="11" fill="#FCE700" opacity="0.7" letter-spacing="0">
      <text x="0" y="0">       ▄████▄</text>
      <text x="0" y="14">      ███████▄</text>
      <text x="0" y="28">     ██▀▀█▀▀██</text>
      <text x="0" y="42">     ██  █  ██</text>
      <text x="0" y="56">     ██▄▄█▄▄██</text>
      <text x="0" y="70">      ███████</text>
      <text x="0" y="84">      ▀█▄ ▄█▀</text>
      <text x="0" y="98">        ▀▀▀</text>
    </g>
  
<rect x="60" y="422" width="92" height="22" fill="none" stroke="#FCE700" stroke-width="1"></rect><text class="tech" x="106" y="438" font-size="13" fill="#FCE700" text-anchor="middle" letter-spacing="2">ESP32-S3</text><rect x="164" y="422" width="83" height="22" fill="none" stroke="#8A8A8A" stroke-width="1"></rect><text class="tech" x="205.5" y="438" font-size="13" fill="#FFFFFF" text-anchor="middle" letter-spacing="2">SSD1351</text><rect x="259" y="422" width="74" height="22" fill="none" stroke="#00F0FF" stroke-width="1"></rect><text class="tech" x="296" y="438" font-size="13" fill="#00F0FF" text-anchor="middle" letter-spacing="2">SX1276</text><rect x="345" y="422" width="92" height="22" fill="none" stroke="#8A8A8A" stroke-width="1"></rect><text class="tech" x="391" y="438" font-size="13" fill="#FFFFFF" text-anchor="middle" letter-spacing="2">NRF24L01</text><rect x="449" y="422" width="83" height="22" fill="none" stroke="#00FF9C" stroke-width="1"></rect><text class="tech" x="490.5" y="438" font-size="13" fill="#00FF9C" text-anchor="middle" letter-spacing="2">ARDUINO</text>
<line x1="0" y1="0" x2="1280" y2="0" stroke="#FCE700" stroke-opacity="0.04" stroke-width="1"></line><line x1="0" y1="3" x2="1280" y2="3" stroke="#FCE700" stroke-opacity="0.04" stroke-width="1"></line><line x1="0" y1="6" x2="1280" y2="6" stroke="#FCE700" stroke-opacity="0.04" stroke-width="1"></line><line x1="0" y1="9" x2="1280" y2="9" stroke="#FCE700" stroke-opacity="0.04" stroke-width="1"></line><line x1="0" y1="12" x2="1280" y2="12" stroke="#FCE700" stroke-opacity="0.04" stroke-width="1"></line><line x1="0" y1="15" x2="1280" y2="15" stroke="#FCE700" stroke-opacity="0.04" stroke-width="1"></line><line x1="0" y1="18" x2="1280" y2="18" stroke="#FCE700" stroke-opacity="0.04" stroke-width="1"></line><line x1="0" y1="21" x2="1280" y2="21" stroke="#FCE700" stroke-opacity="0.04" stroke-width="1"></line><line x1="0" y1="24" x2="1280" y2="24" stroke="#FCE700" stroke-opacity="0.04" stroke-width="1"></line><line x1="0" y1="27" x2="1280" y2="27" stroke="#FCE700" stroke-opacity="0.04" stroke-width="1"></line><line x1="0" y1="30" x2="1280" y2="30" stroke="#FCE700" stroke-opacity="0.04" stroke-width="1"></line><line x1="0" y1="33" x2="1280" y2="33" stroke="#FCE700" stroke-opacity="0.04" stroke-width="1"></line><line x1="0" y1="36" x2="1280" y2="36" stroke="#FCE700" stroke-opacity="0.04" stroke-width="1"></line><line x1="0" y1="39" x2="1280" y2="39" stroke="#FCE700" stroke-opacity="0.04" stroke-width="1"></line><line x1="0" y1="42" x2="1280" y2="42" stroke="#FCE700" stroke-opacity="0.04" stroke-width="1"></line><line x1="0" y1="45" x2="1280" y2="45" stroke="#FCE700" stroke-opacity="0.04" stroke-width="1"></line><line x1="0" y1="48" x2="1280" y2="48" stroke="#FCE700" stroke-opacity="0.04" stroke-width="1"></line><line x1="0" y1="51" x2="1280" y2="51" stroke="#FCE700" stroke-opacity="0.04" stroke-width="1"></line><line x1="0" y1="54" x2="1280" y2="54" stroke="#FCE700" stroke-opacity="0.04" stroke-width="1"></line><line x1="0" y1="57" x2="1280" y2="57" stroke="#FCE700" stroke-opacity="0.04" stroke-width="1"></line><line x1="0" y1="60" x2="1280" y2="60" stroke="#FCE700" stroke-opacity="0.04" stroke-width="1"></line><line x1="0" y1="63" x2="1280" y2="63" stroke="#FCE700" stroke-opacity="0.04" stroke-width="1"></line><line x1="0" y1="66" x2="1280" y2="66" stroke="#FCE700" stroke-opacity="0.04" stroke-width="1"></line><line x1="0" y1="69" x2="1280" y2="69" stroke="#FCE700" stroke-opacity="0.04" stroke-width="1"></line><line x1="0" y1="72" x2="1280" y2="72" stroke="#FCE700" stroke-opacity="0.04" stroke-width="1"></line><line x1="0" y1="75" x2="1280" y2="75" stroke="#FCE700" stroke-opacity="0.04" stroke-width="1"></line><line x1="0" y1="78" x2="1280" y2="78" stroke="#FCE700" stroke-opacity="0.04" stroke-width="1"></line><line x1="0" y1="81" x2="1280" y2="81" stroke="#FCE700" stroke-opacity="0.04" stroke-width="1"></line><line x1="0" y1="84" x2="1280" y2="84" stroke="#FCE700" stroke-opacity="0.04" stroke-width="1"></line><line x1="0" y1="87" x2="1280" y2="87" stroke="#FCE700" stroke-opacity="0.04" stroke-width="1"></line><line x1="0" y1="90" x2="1280" y2="90" stroke="#FCE700" stroke-opacity="0.04" stroke-width="1"></line><line x1="0" y1="93" x2="1280" y2="93" stroke="#FCE700" stroke-opacity="0.04" stroke-width="1"></line><line x1="0" y1="96" x2="1280" y2="96" stroke="#FCE700" stroke-opacity="0.04" stroke-width="1"></line><line x1="0" y1="99" x2="1280" y2="99" stroke="#FCE700" stroke-opacity="0.04" stroke-width="1"></line><line x1="0" y1="102" x2="1280" y2="102" stroke="#FCE700" stroke-opacity="0.04" stroke-width="1"></line><line x1="0" y1="105" x2="1280" y2="105" stroke="#FCE700" stroke-opacity="0.04" stroke-width="1"></line><line x1="0" y1="108" x2="1280" y2="108" stroke="#FCE700" stroke-opacity="0.04" stroke-width="1"></line><line x1="0" y1="111" x2="1280" y2="111" stroke="#FCE700" stroke-opacity="0.04" stroke-width="1"></line><line x1="0" y1="114" x2="1280" y2="114" stroke="#FCE700" stroke-opacity="0.04" stroke-width="1"></line><line x1="0" y1="117" x2="1280" y2="117" stroke="#FCE700" stroke-opacity="0.04" stroke-width="1"></line><line x1="0" y1="120" x2="1280" y2="120" stroke="#FCE700" stroke-opacity="0.04" stroke-width="1"></line><line x1="0" y1="123" x2="1280" y2="123" stroke="#FCE700" stroke-opacity="0.04" stroke-width="1"></line><line x1="0" y1="126" x2="1280" y2="126" stroke="#FCE700" stroke-opacity="0.04" stroke-width="1"></line><line x1="0" y1="129" x2="1280" y2="129" stroke="#FCE700" stroke-opacity="0.04" stroke-width="1"></line><line x1="0" y1="132" x2="1280" y2="132" stroke="#FCE700" stroke-opacity="0.04" stroke-width="1"></line><line x1="0" y1="135" x2="1280" y2="135" stroke="#FCE700" stroke-opacity="0.04" stroke-width="1"></line><line x1="0" y1="138" x2="1280" y2="138" stroke="#FCE700" stroke-opacity="0.04" stroke-width="1"></line><line x1="0" y1="141" x2="1280" y2="141" stroke="#FCE700" stroke-opacity="0.04" stroke-width="1"></line><line x1="0" y1="144" x2="1280" y2="144" stroke="#FCE700" stroke-opacity="0.04" stroke-width="1"></line><line x1="0" y1="147" x2="1280" y2="147" stroke="#FCE700" stroke-opacity="0.04" stroke-width="1"></line><line x1="0" y1="150" x2="1280" y2="150" stroke="#FCE700" stroke-opacity="0.04" stroke-width="1"></line><line x1="0" y1="153" x2="1280" y2="153" stroke="#FCE700" stroke-opacity="0.04" stroke-width="1"></line><line x1="0" y1="156" x2="1280" y2="156" stroke="#FCE700" stroke-opacity="0.04" stroke-width="1"></line><line x1="0" y1="159" x2="1280" y2="159" stroke="#FCE700" stroke-opacity="0.04" stroke-width="1"></line><line x1="0" y1="162" x2="1280" y2="162" stroke="#FCE700" stroke-opacity="0.04" stroke-width="1"></line><line x1="0" y1="165" x2="1280" y2="165" stroke="#FCE700" stroke-opacity="0.04" stroke-width="1"></line><line x1="0" y1="168" x2="1280" y2="168" stroke="#FCE700" stroke-opacity="0.04" stroke-width="1"></line><line x1="0" y1="171" x2="1280" y2="171" stroke="#FCE700" stroke-opacity="0.04" stroke-width="1"></line><line x1="0" y1="174" x2="1280" y2="174" stroke="#FCE700" stroke-opacity="0.04" stroke-width="1"></line><line x1="0" y1="177" x2="1280" y2="177" stroke="#FCE700" stroke-opacity="0.04" stroke-width="1"></line><line x1="0" y1="180" x2="1280" y2="180" stroke="#FCE700" stroke-opacity="0.04" stroke-width="1"></line><line x1="0" y1="183" x2="1280" y2="183" stroke="#FCE700" stroke-opacity="0.04" stroke-width="1"></line><line x1="0" y1="186" x2="1280" y2="186" stroke="#FCE700" stroke-opacity="0.04" stroke-width="1"></line><line x1="0" y1="189" x2="1280" y2="189" stroke="#FCE700" stroke-opacity="0.04" stroke-width="1"></line><line x1="0" y1="192" x2="1280" y2="192" stroke="#FCE700" stroke-opacity="0.04" stroke-width="1"></line><line x1="0" y1="195" x2="1280" y2="195" stroke="#FCE700" stroke-opacity="0.04" stroke-width="1"></line><line x1="0" y1="198" x2="1280" y2="198" stroke="#FCE700" stroke-opacity="0.04" stroke-width="1"></line><line x1="0" y1="201" x2="1280" y2="201" stroke="#FCE700" stroke-opacity="0.04" stroke-width="1"></line><line x1="0" y1="204" x2="1280" y2="204" stroke="#FCE700" stroke-opacity="0.04" stroke-width="1"></line><line x1="0" y1="207" x2="1280" y2="207" stroke="#FCE700" stroke-opacity="0.04" stroke-width="1"></line><line x1="0" y1="210" x2="1280" y2="210" stroke="#FCE700" stroke-opacity="0.04" stroke-width="1"></line><line x1="0" y1="213" x2="1280" y2="213" stroke="#FCE700" stroke-opacity="0.04" stroke-width="1"></line><line x1="0" y1="216" x2="1280" y2="216" stroke="#FCE700" stroke-opacity="0.04" stroke-width="1"></line><line x1="0" y1="219" x2="1280" y2="219" stroke="#FCE700" stroke-opacity="0.04" stroke-width="1"></line><line x1="0" y1="222" x2="1280" y2="222" stroke="#FCE700" stroke-opacity="0.04" stroke-width="1"></line><line x1="0" y1="225" x2="1280" y2="225" stroke="#FCE700" stroke-opacity="0.04" stroke-width="1"></line><line x1="0" y1="228" x2="1280" y2="228" stroke="#FCE700" stroke-opacity="0.04" stroke-width="1"></line><line x1="0" y1="231" x2="1280" y2="231" stroke="#FCE700" stroke-opacity="0.04" stroke-width="1"></line><line x1="0" y1="234" x2="1280" y2="234" stroke="#FCE700" stroke-opacity="0.04" stroke-width="1"></line><line x1="0" y1="237" x2="1280" y2="237" stroke="#FCE700" stroke-opacity="0.04" stroke-width="1"></line><line x1="0" y1="240" x2="1280" y2="240" stroke="#FCE700" stroke-opacity="0.04" stroke-width="1"></line><line x1="0" y1="243" x2="1280" y2="243" stroke="#FCE700" stroke-opacity="0.04" stroke-width="1"></line><line x1="0" y1="246" x2="1280" y2="246" stroke="#FCE700" stroke-opacity="0.04" stroke-width="1"></line><line x1="0" y1="249" x2="1280" y2="249" stroke="#FCE700" stroke-opacity="0.04" stroke-width="1"></line><line x1="0" y1="252" x2="1280" y2="252" stroke="#FCE700" stroke-opacity="0.04" stroke-width="1"></line><line x1="0" y1="255" x2="1280" y2="255" stroke="#FCE700" stroke-opacity="0.04" stroke-width="1"></line><line x1="0" y1="258" x2="1280" y2="258" stroke="#FCE700" stroke-opacity="0.04" stroke-width="1"></line><line x1="0" y1="261" x2="1280" y2="261" stroke="#FCE700" stroke-opacity="0.04" stroke-width="1"></line><line x1="0" y1="264" x2="1280" y2="264" stroke="#FCE700" stroke-opacity="0.04" stroke-width="1"></line><line x1="0" y1="267" x2="1280" y2="267" stroke="#FCE700" stroke-opacity="0.04" stroke-width="1"></line><line x1="0" y1="270" x2="1280" y2="270" stroke="#FCE700" stroke-opacity="0.04" stroke-width="1"></line><line x1="0" y1="273" x2="1280" y2="273" stroke="#FCE700" stroke-opacity="0.04" stroke-width="1"></line><line x1="0" y1="276" x2="1280" y2="276" stroke="#FCE700" stroke-opacity="0.04" stroke-width="1"></line><line x1="0" y1="279" x2="1280" y2="279" stroke="#FCE700" stroke-opacity="0.04" stroke-width="1"></line><line x1="0" y1="282" x2="1280" y2="282" stroke="#FCE700" stroke-opacity="0.04" stroke-width="1"></line><line x1="0" y1="285" x2="1280" y2="285" stroke="#FCE700" stroke-opacity="0.04" stroke-width="1"></line><line x1="0" y1="288" x2="1280" y2="288" stroke="#FCE700" stroke-opacity="0.04" stroke-width="1"></line><line x1="0" y1="291" x2="1280" y2="291" stroke="#FCE700" stroke-opacity="0.04" stroke-width="1"></line><line x1="0" y1="294" x2="1280" y2="294" stroke="#FCE700" stroke-opacity="0.04" stroke-width="1"></line><line x1="0" y1="297" x2="1280" y2="297" stroke="#FCE700" stroke-opacity="0.04" stroke-width="1"></line><line x1="0" y1="300" x2="1280" y2="300" stroke="#FCE700" stroke-opacity="0.04" stroke-width="1"></line><line x1="0" y1="303" x2="1280" y2="303" stroke="#FCE700" stroke-opacity="0.04" stroke-width="1"></line><line x1="0" y1="306" x2="1280" y2="306" stroke="#FCE700" stroke-opacity="0.04" stroke-width="1"></line><line x1="0" y1="309" x2="1280" y2="309" stroke="#FCE700" stroke-opacity="0.04" stroke-width="1"></line><line x1="0" y1="312" x2="1280" y2="312" stroke="#FCE700" stroke-opacity="0.04" stroke-width="1"></line><line x1="0" y1="315" x2="1280" y2="315" stroke="#FCE700" stroke-opacity="0.04" stroke-width="1"></line><line x1="0" y1="318" x2="1280" y2="318" stroke="#FCE700" stroke-opacity="0.04" stroke-width="1"></line><line x1="0" y1="321" x2="1280" y2="321" stroke="#FCE700" stroke-opacity="0.04" stroke-width="1"></line><line x1="0" y1="324" x2="1280" y2="324" stroke="#FCE700" stroke-opacity="0.04" stroke-width="1"></line><line x1="0" y1="327" x2="1280" y2="327" stroke="#FCE700" stroke-opacity="0.04" stroke-width="1"></line><line x1="0" y1="330" x2="1280" y2="330" stroke="#FCE700" stroke-opacity="0.04" stroke-width="1"></line><line x1="0" y1="333" x2="1280" y2="333" stroke="#FCE700" stroke-opacity="0.04" stroke-width="1"></line><line x1="0" y1="336" x2="1280" y2="336" stroke="#FCE700" stroke-opacity="0.04" stroke-width="1"></line><line x1="0" y1="339" x2="1280" y2="339" stroke="#FCE700" stroke-opacity="0.04" stroke-width="1"></line><line x1="0" y1="342" x2="1280" y2="342" stroke="#FCE700" stroke-opacity="0.04" stroke-width="1"></line><line x1="0" y1="345" x2="1280" y2="345" stroke="#FCE700" stroke-opacity="0.04" stroke-width="1"></line><line x1="0" y1="348" x2="1280" y2="348" stroke="#FCE700" stroke-opacity="0.04" stroke-width="1"></line><line x1="0" y1="351" x2="1280" y2="351" stroke="#FCE700" stroke-opacity="0.04" stroke-width="1"></line><line x1="0" y1="354" x2="1280" y2="354" stroke="#FCE700" stroke-opacity="0.04" stroke-width="1"></line><line x1="0" y1="357" x2="1280" y2="357" stroke="#FCE700" stroke-opacity="0.04" stroke-width="1"></line><line x1="0" y1="360" x2="1280" y2="360" stroke="#FCE700" stroke-opacity="0.04" stroke-width="1"></line><line x1="0" y1="363" x2="1280" y2="363" stroke="#FCE700" stroke-opacity="0.04" stroke-width="1"></line><line x1="0" y1="366" x2="1280" y2="366" stroke="#FCE700" stroke-opacity="0.04" stroke-width="1"></line><line x1="0" y1="369" x2="1280" y2="369" stroke="#FCE700" stroke-opacity="0.04" stroke-width="1"></line><line x1="0" y1="372" x2="1280" y2="372" stroke="#FCE700" stroke-opacity="0.04" stroke-width="1"></line><line x1="0" y1="375" x2="1280" y2="375" stroke="#FCE700" stroke-opacity="0.04" stroke-width="1"></line><line x1="0" y1="378" x2="1280" y2="378" stroke="#FCE700" stroke-opacity="0.04" stroke-width="1"></line><line x1="0" y1="381" x2="1280" y2="381" stroke="#FCE700" stroke-opacity="0.04" stroke-width="1"></line><line x1="0" y1="384" x2="1280" y2="384" stroke="#FCE700" stroke-opacity="0.04" stroke-width="1"></line><line x1="0" y1="387" x2="1280" y2="387" stroke="#FCE700" stroke-opacity="0.04" stroke-width="1"></line><line x1="0" y1="390" x2="1280" y2="390" stroke="#FCE700" stroke-opacity="0.04" stroke-width="1"></line><line x1="0" y1="393" x2="1280" y2="393" stroke="#FCE700" stroke-opacity="0.04" stroke-width="1"></line><line x1="0" y1="396" x2="1280" y2="396" stroke="#FCE700" stroke-opacity="0.04" stroke-width="1"></line><line x1="0" y1="399" x2="1280" y2="399" stroke="#FCE700" stroke-opacity="0.04" stroke-width="1"></line><line x1="0" y1="402" x2="1280" y2="402" stroke="#FCE700" stroke-opacity="0.04" stroke-width="1"></line><line x1="0" y1="405" x2="1280" y2="405" stroke="#FCE700" stroke-opacity="0.04" stroke-width="1"></line><line x1="0" y1="408" x2="1280" y2="408" stroke="#FCE700" stroke-opacity="0.04" stroke-width="1"></line><line x1="0" y1="411" x2="1280" y2="411" stroke="#FCE700" stroke-opacity="0.04" stroke-width="1"></line><line x1="0" y1="414" x2="1280" y2="414" stroke="#FCE700" stroke-opacity="0.04" stroke-width="1"></line><line x1="0" y1="417" x2="1280" y2="417" stroke="#FCE700" stroke-opacity="0.04" stroke-width="1"></line><line x1="0" y1="420" x2="1280" y2="420" stroke="#FCE700" stroke-opacity="0.04" stroke-width="1"></line><line x1="0" y1="423" x2="1280" y2="423" stroke="#FCE700" stroke-opacity="0.04" stroke-width="1"></line><line x1="0" y1="426" x2="1280" y2="426" stroke="#FCE700" stroke-opacity="0.04" stroke-width="1"></line><line x1="0" y1="429" x2="1280" y2="429" stroke="#FCE700" stroke-opacity="0.04" stroke-width="1"></line><line x1="0" y1="432" x2="1280" y2="432" stroke="#FCE700" stroke-opacity="0.04" stroke-width="1"></line><line x1="0" y1="435" x2="1280" y2="435" stroke="#FCE700" stroke-opacity="0.04" stroke-width="1"></line><line x1="0" y1="438" x2="1280" y2="438" stroke="#FCE700" stroke-opacity="0.04" stroke-width="1"></line><line x1="0" y1="441" x2="1280" y2="441" stroke="#FCE700" stroke-opacity="0.04" stroke-width="1"></line><line x1="0" y1="444" x2="1280" y2="444" stroke="#FCE700" stroke-opacity="0.04" stroke-width="1"></line><line x1="0" y1="447" x2="1280" y2="447" stroke="#FCE700" stroke-opacity="0.04" stroke-width="1"></line><line x1="0" y1="450" x2="1280" y2="450" stroke="#FCE700" stroke-opacity="0.04" stroke-width="1"></line><line x1="0" y1="453" x2="1280" y2="453" stroke="#FCE700" stroke-opacity="0.04" stroke-width="1"></line><line x1="0" y1="456" x2="1280" y2="456" stroke="#FCE700" stroke-opacity="0.04" stroke-width="1"></line><line x1="0" y1="459" x2="1280" y2="459" stroke="#FCE700" stroke-opacity="0.04" stroke-width="1"></line><line x1="0" y1="462" x2="1280" y2="462" stroke="#FCE700" stroke-opacity="0.04" stroke-width="1"></line><line x1="0" y1="465" x2="1280" y2="465" stroke="#FCE700" stroke-opacity="0.04" stroke-width="1"></line><line x1="0" y1="468" x2="1280" y2="468" stroke="#FCE700" stroke-opacity="0.04" stroke-width="1"></line><line x1="0" y1="471" x2="1280" y2="471" stroke="#FCE700" stroke-opacity="0.04" stroke-width="1"></line><line x1="0" y1="474" x2="1280" y2="474" stroke="#FCE700" stroke-opacity="0.04" stroke-width="1"></line><line x1="0" y1="477" x2="1280" y2="477" stroke="#FCE700" stroke-opacity="0.04" stroke-width="1"></line>
<rect width="1280" height="480" fill="url(#vignette)" pointer-events="none"></rect>
</svg>