<?xml version="1.0" encoding="UTF-8"?>
<svg xmlns="http://www.w3.org/2000/svg" viewBox="0 0 600 600" width="600" height="600" preserveAspectRatio="xMidYMid meet">

<rect width="600" height="600" fill="#000000"></rect>
<line x1="0" y1="0" x2="0" y2="600" stroke="#787878" stroke-opacity="0.1"></line><line x1="30" y1="0" x2="30" y2="600" stroke="#787878" stroke-opacity="0.1"></line><line x1="60" y1="0" x2="60" y2="600" stroke="#787878" stroke-opacity="0.1"></line><line x1="90" y1="0" x2="90" y2="600" stroke="#787878" stroke-opacity="0.1"></line><line x1="120" y1="0" x2="120" y2="600" stroke="#787878" stroke-opacity="0.1"></line><line x1="150" y1="0" x2="150" y2="600" stroke="#787878" stroke-opacity="0.1"></line><line x1="180" y1="0" x2="180" y2="600" stroke="#787878" stroke-opacity="0.1"></line><line x1="210" y1="0" x2="210" y2="600" stroke="#787878" stroke-opacity="0.1"></line><line x1="240" y1="0" x2="240" y2="600" stroke="#787878" stroke-opacity="0.1"></line><line x1="270" y1="0" x2="270" y2="600" stroke="#787878" stroke-opacity="0.1"></line><line x1="300" y1="0" x2="300" y2="600" stroke="#787878" stroke-opacity="0.1"></line><line x1="330" y1="0" x2="330" y2="600" stroke="#787878" stroke-opacity="0.1"></line><line x1="360" y1="0" x2="360" y2="600" stroke="#787878" stroke-opacity="0.1"></line><line x1="390" y1="0" x2="390" y2="600" stroke="#787878" stroke-opacity="0.1"></line><line x1="420" y1="0" x2="420" y2="600" stroke="#787878" stroke-opacity="0.1"></line><line x1="450" y1="0" x2="450" y2="600" stroke="#787878" stroke-opacity="0.1"></line><line x1="480" y1="0" x2="480" y2="600" stroke="#787878" stroke-opacity="0.1"></line><line x1="510" y1="0" x2="510" y2="600" stroke="#787878" stroke-opacity="0.1"></line><line x1="540" y1="0" x2="540" y2="600" stroke="#787878" stroke-opacity="0.1"></line><line x1="570" y1="0" x2="570" y2="600" stroke="#787878" stroke-opacity="0.1"></line><line x1="0" y1="0" x2="600" y2="0" stroke="#787878" stroke-opacity="0.1"></line><line x1="0" y1="30" x2="600" y2="30" stroke="#787878" stroke-opacity="0.1"></line><line x1="0" y1="60" x2="600" y2="60" stroke="#787878" stroke-opacity="0.1"></line><line x1="0" y1="90" x2="600" y2="90" stroke="#787878" stroke-opacity="0.1"></line><line x1="0" y1="120" x2="600" y2="120" stroke="#787878" stroke-opacity="0.1"></line><line x1="0" y1="150" x2="600" y2="150" stroke="#787878" stroke-opacity="0.1"></line><line x1="0" y1="180" x2="600" y2="180" stroke="#787878" stroke-opacity="0.1"></line><line x1="0" y1="210" x2="600" y2="210" stroke="#787878" stroke-opacity="0.1"></line><line x1="0" y1="240" x2="600" y2="240" stroke="#787878" stroke-opacity="0.1"></line><line x1="0" y1="270" x2="600" y2="270" stroke="#787878" stroke-opacity="0.1"></line><line x1="0" y1="300" x2="600" y2="300" stroke="#787878" stroke-opacity="0.1"></line><line x1="0" y1="330" x2="600" y2="330" stroke="#787878" stroke-opacity="0.1"></line><line x1="0" y1="360" x2="600" y2="360" stroke="#787878" stroke-opacity="0.1"></line><line x1="0" y1="390" x2="600" y2="390" stroke="#787878" stroke-opacity="0.1"></line><line x1="0" y1="420" x2="600" y2="420" stroke="#787878" stroke-opacity="0.1"></line><line x1="0" y1="450" x2="600" y2="450" stroke="#787878" stroke-opacity="0.1"></line><line x1="0" y1="480" x2="600" y2="480" stroke="#787878" stroke-opacity="0.1"></line><line x1="0" y1="510" x2="600" y2="510" stroke="#787878" stroke-opacity="0.1"></line><line x1="0" y1="540" x2="600" y2="540" stroke="#787878" stroke-opacity="0.1"></line><line x1="0" y1="570" x2="600" y2="570" stroke="#787878" stroke-opacity="0.1"></line>
<polyline points="14,36 14,14 36,14" stroke="#FCE700" stroke-width="2" fill="none"></polyline><polyline points="586,36 586,14 564,14" stroke="#FCE700" stroke-width="2" fill="none"></polyline><polyline points="14,564 14,586 36,586" stroke="#FCE700" stroke-width="2" fill="none"></polyline><polyline points="586,564 586,586 564,586" stroke="#FCE700" stroke-width="2" fill="none"></polyline>

    <rect x="36" y="44" width="8" height="8" fill="#00FF9C"></rect>
    <text class="tech" x="50" y="52" font-size="13" fill="#8A8A8A" letter-spacing="3">STATE 07</text>
    <text class="tech" x="564" y="52" font-size="13" fill="#FCE700" letter-spacing="3" text-anchor="end">// BAD USB</text>
  
<rect x="36" y="76" width="40.333333333333336" height="10" fill="#FCE700" stroke="#FCE700"></rect><rect x="80.33333333333334" y="76" width="40.333333333333336" height="10" fill="#FCE700" stroke="#FCE700"></rect><rect x="124.66666666666667" y="76" width="40.333333333333336" height="10" fill="#FCE700" stroke="#FCE700"></rect><rect x="169" y="76" width="40.333333333333336" height="10" fill="#FCE700" stroke="#FCE700"></rect><rect x="213.33333333333334" y="76" width="40.333333333333336" height="10" fill="#FCE700" stroke="#FCE700"></rect><rect x="257.6666666666667" y="76" width="40.333333333333336" height="10" fill="#FCE700" stroke="#FCE700"></rect><rect x="302" y="76" width="40.333333333333336" height="10" fill="#FF003C" stroke="#FF003C"></rect><rect x="346.33333333333337" y="76" width="40.333333333333336" height="10" fill="#FF003C" stroke="#FF003C"></rect><rect x="390.6666666666667" y="76" width="40.333333333333336" height="10" fill="#FF003C" stroke="#FF003C"></rect><rect x="435" y="76" width="40.333333333333336" height="10" fill="rgba(120,120,120,0.2)" stroke="#787878"></rect><rect x="479.33333333333337" y="76" width="40.333333333333336" height="10" fill="rgba(120,120,120,0.2)" stroke="#787878"></rect><rect x="523.6666666666667" y="76" width="40.333333333333336" height="10" fill="rgba(120,120,120,0.2)" stroke="#787878"></rect>

    <rect x="36" y="100" width="528" height="360" fill="none" stroke="#787878" stroke-opacity="0.4"></rect>
    <line x1="48" y1="112" x2="552" y2="112" stroke="#FCE700" stroke-opacity="0.5"></line>
    <line x1="48" y1="448" x2="552" y2="448" stroke="#FCE700" stroke-opacity="0.5"></line>
  
<image href="mascot-bad-usb-raw.png" x="173.1818181818182" y="130" width="253.63636363636365" height="310" preserveAspectRatio="xMidYMid meet" image-rendering="pixelated"></image>

    <text class="title" x="36" y="528" font-size="30" fill="#FCE700" letter-spacing="3">BAD USB</text>
    <text class="tech" x="36" y="560" font-size="13" fill="#00F0FF" letter-spacing="4">// PAYLOAD ARMED · 200ms</text>
  
<line x1="0" y1="0" x2="600" y2="0" stroke="#FCE700" stroke-opacity="0.04"></line><line x1="0" y1="3" x2="600" y2="3" stroke="#FCE700" stroke-opacity="0.04"></line><line x1="0" y1="6" x2="600" y2="6" stroke="#FCE700" stroke-opacity="0.04"></line><line x1="0" y1="9" x2="600" y2="9" stroke="#FCE700" stroke-opacity="0.04"></line><line x1="0" y1="12" x2="600" y2="12" stroke="#FCE700" stroke-opacity="0.04"></line><line x1="0" y1="15" x2="600" y2="15" stroke="#FCE700" stroke-opacity="0.04"></line><line x1="0" y1="18" x2="600" y2="18" stroke="#FCE700" stroke-opacity="0.04"></line><line x1="0" y1="21" x2="600" y2="21" stroke="#FCE700" stroke-opacity="0.04"></line><line x1="0" y1="24" x2="600" y2="24" stroke="#FCE700" stroke-opacity="0.04"></line><line x1="0" y1="27" x2="600" y2="27" stroke="#FCE700" stroke-opacity="0.04"></line><line x1="0" y1="30" x2="600" y2="30" stroke="#FCE700" stroke-opacity="0.04"></line><line x1="0" y1="33" x2="600" y2="33" stroke="#FCE700" stroke-opacity="0.04"></line><line x1="0" y1="36" x2="600" y2="36" stroke="#FCE700" stroke-opacity="0.04"></line><line x1="0" y1="39" x2="600" y2="39" stroke="#FCE700" stroke-opacity="0.04"></line><line x1="0" y1="42" x2="600" y2="42" stroke="#FCE700" stroke-opacity="0.04"></line><line x1="0" y1="45" x2="600" y2="45" stroke="#FCE700" stroke-opacity="0.04"></line><line x1="0" y1="48" x2="600" y2="48" stroke="#FCE700" stroke-opacity="0.04"></line><line x1="0" y1="51" x2="600" y2="51" stroke="#FCE700" stroke-opacity="0.04"></line><line x1="0" y1="54" x2="600" y2="54" stroke="#FCE700" stroke-opacity="0.04"></line><line x1="0" y1="57" x2="600" y2="57" stroke="#FCE700" stroke-opacity="0.04"></line><line x1="0" y1="60" x2="600" y2="60" stroke="#FCE700" stroke-opacity="0.04"></line><line x1="0" y1="63" x2="600" y2="63" stroke="#FCE700" stroke-opacity="0.04"></line><line x1="0" y1="66" x2="600" y2="66" stroke="#FCE700" stroke-opacity="0.04"></line><line x1="0" y1="69" x2="600" y2="69" stroke="#FCE700" stroke-opacity="0.04"></line><line x1="0" y1="72" x2="600" y2="72" stroke="#FCE700" stroke-opacity="0.04"></line><line x1="0" y1="75" x2="600" y2="75" stroke="#FCE700" stroke-opacity="0.04"></line><line x1="0" y1="78" x2="600" y2="78" stroke="#FCE700" stroke-opacity="0.04"></line><line x1="0" y1="81" x2="600" y2="81" stroke="#FCE700" stroke-opacity="0.04"></line><line x1="0" y1="84" x2="600" y2="84" stroke="#FCE700" stroke-opacity="0.04"></line><line x1="0" y1="87" x2="600" y2="87" stroke="#FCE700" stroke-opacity="0.04"></line><line x1="0" y1="90" x2="600" y2="90" stroke="#FCE700" stroke-opacity="0.04"></line><line x1="0" y1="93" x2="600" y2="93" stroke="#FCE700" stroke-opacity="0.04"></line><line x1="0" y1="96" x2="600" y2="96" stroke="#FCE700" stroke-opacity="0.04"></line><line x1="0" y1="99" x2="600" y2="99" stroke="#FCE700" stroke-opacity="0.04"></line><line x1="0" y1="102" x2="600" y2="102" stroke="#FCE700" stroke-opacity="0.04"></line><line x1="0" y1="105" x2="600" y2="105" stroke="#FCE700" stroke-opacity="0.04"></line><line x1="0" y1="108" x2="600" y2="108" stroke="#FCE700" stroke-opacity="0.04"></line><line x1="0" y1="111" x2="600" y2="111" stroke="#FCE700" stroke-opacity="0.04"></line><line x1="0" y1="114" x2="600" y2="114" stroke="#FCE700" stroke-opacity="0.04"></line><line x1="0" y1="117" x2="600" y2="117" stroke="#FCE700" stroke-opacity="0.04"></line><line x1="0" y1="120" x2="600" y2="120" stroke="#FCE700" stroke-opacity="0.04"></line><line x1="0" y1="123" x2="600" y2="123" stroke="#FCE700" stroke-opacity="0.04"></line><line x1="0" y1="126" x2="600" y2="126" stroke="#FCE700" stroke-opacity="0.04"></line><line x1="0" y1="129" x2="600" y2="129" stroke="#FCE700" stroke-opacity="0.04"></line><line x1="0" y1="132" x2="600" y2="132" stroke="#FCE700" stroke-opacity="0.04"></line><line x1="0" y1="135" x2="600" y2="135" stroke="#FCE700" stroke-opacity="0.04"></line><line x1="0" y1="138" x2="600" y2="138" stroke="#FCE700" stroke-opacity="0.04"></line><line x1="0" y1="141" x2="600" y2="141" stroke="#FCE700" stroke-opacity="0.04"></line><line x1="0" y1="144" x2="600" y2="144" stroke="#FCE700" stroke-opacity="0.04"></line><line x1="0" y1="147" x2="600" y2="147" stroke="#FCE700" stroke-opacity="0.04"></line><line x1="0" y1="150" x2="600" y2="150" stroke="#FCE700" stroke-opacity="0.04"></line><line x1="0" y1="153" x2="600" y2="153" stroke="#FCE700" stroke-opacity="0.04"></line><line x1="0" y1="156" x2="600" y2="156" stroke="#FCE700" stroke-opacity="0.04"></line><line x1="0" y1="159" x2="600" y2="159" stroke="#FCE700" stroke-opacity="0.04"></line><line x1="0" y1="162" x2="600" y2="162" stroke="#FCE700" stroke-opacity="0.04"></line><line x1="0" y1="165" x2="600" y2="165" stroke="#FCE700" stroke-opacity="0.04"></line><line x1="0" y1="168" x2="600" y2="168" stroke="#FCE700" stroke-opacity="0.04"></line><line x1="0" y1="171" x2="600" y2="171" stroke="#FCE700" stroke-opacity="0.04"></line><line x1="0" y1="174" x2="600" y2="174" stroke="#FCE700" stroke-opacity="0.04"></line><line x1="0" y1="177" x2="600" y2="177" stroke="#FCE700" stroke-opacity="0.04"></line><line x1="0" y1="180" x2="600" y2="180" stroke="#FCE700" stroke-opacity="0.04"></line><line x1="0" y1="183" x2="600" y2="183" stroke="#FCE700" stroke-opacity="0.04"></line><line x1="0" y1="186" x2="600" y2="186" stroke="#FCE700" stroke-opacity="0.04"></line><line x1="0" y1="189" x2="600" y2="189" stroke="#FCE700" stroke-opacity="0.04"></line><line x1="0" y1="192" x2="600" y2="192" stroke="#FCE700" stroke-opacity="0.04"></line><line x1="0" y1="195" x2="600" y2="195" stroke="#FCE700" stroke-opacity="0.04"></line><line x1="0" y1="198" x2="600" y2="198" stroke="#FCE700" stroke-opacity="0.04"></line><line x1="0" y1="201" x2="600" y2="201" stroke="#FCE700" stroke-opacity="0.04"></line><line x1="0" y1="204" x2="600" y2="204" stroke="#FCE700" stroke-opacity="0.04"></line><line x1="0" y1="207" x2="600" y2="207" stroke="#FCE700" stroke-opacity="0.04"></line><line x1="0" y1="210" x2="600" y2="210" stroke="#FCE700" stroke-opacity="0.04"></line><line x1="0" y1="213" x2="600" y2="213" stroke="#FCE700" stroke-opacity="0.04"></line><line x1="0" y1="216" x2="600" y2="216" stroke="#FCE700" stroke-opacity="0.04"></line><line x1="0" y1="219" x2="600" y2="219" stroke="#FCE700" stroke-opacity="0.04"></line><line x1="0" y1="222" x2="600" y2="222" stroke="#FCE700" stroke-opacity="0.04"></line><line x1="0" y1="225" x2="600" y2="225" stroke="#FCE700" stroke-opacity="0.04"></line><line x1="0" y1="228" x2="600" y2="228" stroke="#FCE700" stroke-opacity="0.04"></line><line x1="0" y1="231" x2="600" y2="231" stroke="#FCE700" stroke-opacity="0.04"></line><line x1="0" y1="234" x2="600" y2="234" stroke="#FCE700" stroke-opacity="0.04"></line><line x1="0" y1="237" x2="600" y2="237" stroke="#FCE700" stroke-opacity="0.04"></line><line x1="0" y1="240" x2="600" y2="240" stroke="#FCE700" stroke-opacity="0.04"></line><line x1="0" y1="243" x2="600" y2="243" stroke="#FCE700" stroke-opacity="0.04"></line><line x1="0" y1="246" x2="600" y2="246" stroke="#FCE700" stroke-opacity="0.04"></line><line x1="0" y1="249" x2="600" y2="249" stroke="#FCE700" stroke-opacity="0.04"></line><line x1="0" y1="252" x2="600" y2="252" stroke="#FCE700" stroke-opacity="0.04"></line><line x1="0" y1="255" x2="600" y2="255" stroke="#FCE700" stroke-opacity="0.04"></line><line x1="0" y1="258" x2="600" y2="258" stroke="#FCE700" stroke-opacity="0.04"></line><line x1="0" y1="261" x2="600" y2="261" stroke="#FCE700" stroke-opacity="0.04"></line><line x1="0" y1="264" x2="600" y2="264" stroke="#FCE700" stroke-opacity="0.04"></line><line x1="0" y1="267" x2="600" y2="267" stroke="#FCE700" stroke-opacity="0.04"></line><line x1="0" y1="270" x2="600" y2="270" stroke="#FCE700" stroke-opacity="0.04"></line><line x1="0" y1="273" x2="600" y2="273" stroke="#FCE700" stroke-opacity="0.04"></line><line x1="0" y1="276" x2="600" y2="276" stroke="#FCE700" stroke-opacity="0.04"></line><line x1="0" y1="279" x2="600" y2="279" stroke="#FCE700" stroke-opacity="0.04"></line><line x1="0" y1="282" x2="600" y2="282" stroke="#FCE700" stroke-opacity="0.04"></line><line x1="0" y1="285" x2="600" y2="285" stroke="#FCE700" stroke-opacity="0.04"></line><line x1="0" y1="288" x2="600" y2="288" stroke="#FCE700" stroke-opacity="0.04"></line><line x1="0" y1="291" x2="600" y2="291" stroke="#FCE700" stroke-opacity="0.04"></line><line x1="0" y1="294" x2="600" y2="294" stroke="#FCE700" stroke-opacity="0.04"></line><line x1="0" y1="297" x2="600" y2="297" stroke="#FCE700" stroke-opacity="0.04"></line><line x1="0" y1="300" x2="600" y2="300" stroke="#FCE700" stroke-opacity="0.04"></line><line x1="0" y1="303" x2="600" y2="303" stroke="#FCE700" stroke-opacity="0.04"></line><line x1="0" y1="306" x2="600" y2="306" stroke="#FCE700" stroke-opacity="0.04"></line><line x1="0" y1="309" x2="600" y2="309" stroke="#FCE700" stroke-opacity="0.04"></line><line x1="0" y1="312" x2="600" y2="312" stroke="#FCE700" stroke-opacity="0.04"></line><line x1="0" y1="315" x2="600" y2="315" stroke="#FCE700" stroke-opacity="0.04"></line><line x1="0" y1="318" x2="600" y2="318" stroke="#FCE700" stroke-opacity="0.04"></line><line x1="0" y1="321" x2="600" y2="321" stroke="#FCE700" stroke-opacity="0.04"></line><line x1="0" y1="324" x2="600" y2="324" stroke="#FCE700" stroke-opacity="0.04"></line><line x1="0" y1="327" x2="600" y2="327" stroke="#FCE700" stroke-opacity="0.04"></line><line x1="0" y1="330" x2="600" y2="330" stroke="#FCE700" stroke-opacity="0.04"></line><line x1="0" y1="333" x2="600" y2="333" stroke="#FCE700" stroke-opacity="0.04"></line><line x1="0" y1="336" x2="600" y2="336" stroke="#FCE700" stroke-opacity="0.04"></line><line x1="0" y1="339" x2="600" y2="339" stroke="#FCE700" stroke-opacity="0.04"></line><line x1="0" y1="342" x2="600" y2="342" stroke="#FCE700" stroke-opacity="0.04"></line><line x1="0" y1="345" x2="600" y2="345" stroke="#FCE700" stroke-opacity="0.04"></line><line x1="0" y1="348" x2="600" y2="348" stroke="#FCE700" stroke-opacity="0.04"></line><line x1="0" y1="351" x2="600" y2="351" stroke="#FCE700" stroke-opacity="0.04"></line><line x1="0" y1="354" x2="600" y2="354" stroke="#FCE700" stroke-opacity="0.04"></line><line x1="0" y1="357" x2="600" y2="357" stroke="#FCE700" stroke-opacity="0.04"></line><line x1="0" y1="360" x2="600" y2="360" stroke="#FCE700" stroke-opacity="0.04"></line><line x1="0" y1="363" x2="600" y2="363" stroke="#FCE700" stroke-opacity="0.04"></line><line x1="0" y1="366" x2="600" y2="366" stroke="#FCE700" stroke-opacity="0.04"></line><line x1="0" y1="369" x2="600" y2="369" stroke="#FCE700" stroke-opacity="0.04"></line><line x1="0" y1="372" x2="600" y2="372" stroke="#FCE700" stroke-opacity="0.04"></line><line x1="0" y1="375" x2="600" y2="375" stroke="#FCE700" stroke-opacity="0.04"></line><line x1="0" y1="378" x2="600" y2="378" stroke="#FCE700" stroke-opacity="0.04"></line><line x1="0" y1="381" x2="600" y2="381" stroke="#FCE700" stroke-opacity="0.04"></line><line x1="0" y1="384" x2="600" y2="384" stroke="#FCE700" stroke-opacity="0.04"></line><line x1="0" y1="387" x2="600" y2="387" stroke="#FCE700" stroke-opacity="0.04"></line><line x1="0" y1="390" x2="600" y2="390" stroke="#FCE700" stroke-opacity="0.04"></line><line x1="0" y1="393" x2="600" y2="393" stroke="#FCE700" stroke-opacity="0.04"></line><line x1="0" y1="396" x2="600" y2="396" stroke="#FCE700" stroke-opacity="0.04"></line><line x1="0" y1="399" x2="600" y2="399" stroke="#FCE700" stroke-opacity="0.04"></line><line x1="0" y1="402" x2="600" y2="402" stroke="#FCE700" stroke-opacity="0.04"></line><line x1="0" y1="405" x2="600" y2="405" stroke="#FCE700" stroke-opacity="0.04"></line><line x1="0" y1="408" x2="600" y2="408" stroke="#FCE700" stroke-opacity="0.04"></line><line x1="0" y1="411" x2="600" y2="411" stroke="#FCE700" stroke-opacity="0.04"></line><line x1="0" y1="414" x2="600" y2="414" stroke="#FCE700" stroke-opacity="0.04"></line><line x1="0" y1="417" x2="600" y2="417" stroke="#FCE700" stroke-opacity="0.04"></line><line x1="0" y1="420" x2="600" y2="420" stroke="#FCE700" stroke-opacity="0.04"></line><line x1="0" y1="423" x2="600" y2="423" stroke="#FCE700" stroke-opacity="0.04"></line><line x1="0" y1="426" x2="600" y2="426" stroke="#FCE700" stroke-opacity="0.04"></line><line x1="0" y1="429" x2="600" y2="429" stroke="#FCE700" stroke-opacity="0.04"></line><line x1="0" y1="432" x2="600" y2="432" stroke="#FCE700" stroke-opacity="0.04"></line><line x1="0" y1="435" x2="600" y2="435" stroke="#FCE700" stroke-opacity="0.04"></line><line x1="0" y1="438" x2="600" y2="438" stroke="#FCE700" stroke-opacity="0.04"></line><line x1="0" y1="441" x2="600" y2="441" stroke="#FCE700" stroke-opacity="0.04"></line><line x1="0" y1="444" x2="600" y2="444" stroke="#FCE700" stroke-opacity="0.04"></line><line x1="0" y1="447" x2="600" y2="447" stroke="#FCE700" stroke-opacity="0.04"></line><line x1="0" y1="450" x2="600" y2="450" stroke="#FCE700" stroke-opacity="0.04"></line><line x1="0" y1="453" x2="600" y2="453" stroke="#FCE700" stroke-opacity="0.04"></line><line x1="0" y1="456" x2="600" y2="456" stroke="#FCE700" stroke-opacity="0.04"></line><line x1="0" y1="459" x2="600" y2="459" stroke="#FCE700" stroke-opacity="0.04"></line><line x1="0" y1="462" x2="600" y2="462" stroke="#FCE700" stroke-opacity="0.04"></line><line x1="0" y1="465" x2="600" y2="465" stroke="#FCE700" stroke-opacity="0.04"></line><line x1="0" y1="468" x2="600" y2="468" stroke="#FCE700" stroke-opacity="0.04"></line><line x1="0" y1="471" x2="600" y2="471" stroke="#FCE700" stroke-opacity="0.04"></line><line x1="0" y1="474" x2="600" y2="474" stroke="#FCE700" stroke-opacity="0.04"></line><line x1="0" y1="477" x2="600" y2="477" stroke="#FCE700" stroke-opacity="0.04"></line><line x1="0" y1="480" x2="600" y2="480" stroke="#FCE700" stroke-opacity="0.04"></line><line x1="0" y1="483" x2="600" y2="483" stroke="#FCE700" stroke-opacity="0.04"></line><line x1="0" y1="486" x2="600" y2="486" stroke="#FCE700" stroke-opacity="0.04"></line><line x1="0" y1="489" x2="600" y2="489" stroke="#FCE700" stroke-opacity="0.04"></line><line x1="0" y1="492" x2="600" y2="492" stroke="#FCE700" stroke-opacity="0.04"></line><line x1="0" y1="495" x2="600" y2="495" stroke="#FCE700" stroke-opacity="0.04"></line><line x1="0" y1="498" x2="600" y2="498" stroke="#FCE700" stroke-opacity="0.04"></line><line x1="0" y1="501" x2="600" y2="501" stroke="#FCE700" stroke-opacity="0.04"></line><line x1="0" y1="504" x2="600" y2="504" stroke="#FCE700" stroke-opacity="0.04"></line><line x1="0" y1="507" x2="600" y2="507" stroke="#FCE700" stroke-opacity="0.04"></line><line x1="0" y1="510" x2="600" y2="510" stroke="#FCE700" stroke-opacity="0.04"></line><line x1="0" y1="513" x2="600" y2="513" stroke="#FCE700" stroke-opacity="0.04"></line><line x1="0" y1="516" x2="600" y2="516" stroke="#FCE700" stroke-opacity="0.04"></line><line x1="0" y1="519" x2="600" y2="519" stroke="#FCE700" stroke-opacity="0.04"></line><line x1="0" y1="522" x2="600" y2="522" stroke="#FCE700" stroke-opacity="0.04"></line><line x1="0" y1="525" x2="600" y2="525" stroke="#FCE700" stroke-opacity="0.04"></line><line x1="0" y1="528" x2="600" y2="528" stroke="#FCE700" stroke-opacity="0.04"></line><line x1="0" y1="531" x2="600" y2="531" stroke="#FCE700" stroke-opacity="0.04"></line><line x1="0" y1="534" x2="600" y2="534" stroke="#FCE700" stroke-opacity="0.04"></line><line x1="0" y1="537" x2="600" y2="537" stroke="#FCE700" stroke-opacity="0.04"></line><line x1="0" y1="540" x2="600" y2="540" stroke="#FCE700" stroke-opacity="0.04"></line><line x1="0" y1="543" x2="600" y2="543" stroke="#FCE700" stroke-opacity="0.04"></line><line x1="0" y1="546" x2="600" y2="546" stroke="#FCE700" stroke-opacity="0.04"></line><line x1="0" y1="549" x2="600" y2="549" stroke="#FCE700" stroke-opacity="0.04"></line><line x1="0" y1="552" x2="600" y2="552" stroke="#FCE700" stroke-opacity="0.04"></line><line x1="0" y1="555" x2="600" y2="555" stroke="#FCE700" stroke-opacity="0.04"></line><line x1="0" y1="558" x2="600" y2="558" stroke="#FCE700" stroke-opacity="0.04"></line><line x1="0" y1="561" x2="600" y2="561" stroke="#FCE700" stroke-opacity="0.04"></line><line x1="0" y1="564" x2="600" y2="564" stroke="#FCE700" stroke-opacity="0.04"></line><line x1="0" y1="567" x2="600" y2="567" stroke="#FCE700" stroke-opacity="0.04"></line><line x1="0" y1="570" x2="600" y2="570" stroke="#FCE700" stroke-opacity="0.04"></line><line x1="0" y1="573" x2="600" y2="573" stroke="#FCE700" stroke-opacity="0.04"></line><line x1="0" y1="576" x2="600" y2="576" stroke="#FCE700" stroke-opacity="0.04"></line><line x1="0" y1="579" x2="600" y2="579" stroke="#FCE700" stroke-opacity="0.04"></line><line x1="0" y1="582" x2="600" y2="582" stroke="#FCE700" stroke-opacity="0.04"></line><line x1="0" y1="585" x2="600" y2="585" stroke="#FCE700" stroke-opacity="0.04"></line><line x1="0" y1="588" x2="600" y2="588" stroke="#FCE700" stroke-opacity="0.04"></line><line x1="0" y1="591" x2="600" y2="591" stroke="#FCE700" stroke-opacity="0.04"></line><line x1="0" y1="594" x2="600" y2="594" stroke="#FCE700" stroke-opacity="0.04"></line><line x1="0" y1="597" x2="600" y2="597" stroke="#FCE700" stroke-opacity="0.04"></line>
</svg>